<?xml version="1.0" standalone="no"?>
<!DOCTYPE svg PUBLIC "-//W3C//DTD SVG 20010904//EN"
 "http://www.w3.org/TR/2001/REC-SVG-20010904/DTD/svg10.dtd">
<svg version="1.0" xmlns="http://www.w3.org/2000/svg"
 width="100.000000pt" height="100.000000pt" viewBox="0 0 100.000000 100.000000"
 preserveAspectRatio="xMidYMid meet">
<metadata>
Created by potrace 1.14, written by Peter Selinger 2001-2017
</metadata>
<g transform="translate(0.000000,100.000000) scale(0.100000,-0.100000)"
fill="#000000" stroke="none">
<path d="M384 939 c-10 -17 13 -36 27 -22 12 12 4 33 -11 33 -5 0 -12 -5 -16
-11z"/>
<path d="M227 875 c-7 -16 8 -29 23 -20 15 9 12 35 -4 35 -8 0 -16 -7 -19 -15z"/>
<path d="M382 839 c-23 -11 -51 -32 -61 -45 -12 -15 -25 -21 -39 -18 -11 3
-40 -3 -65 -14 -33 -15 -49 -30 -63 -60 -11 -21 -34 -49 -52 -61 -87 -58 -97
-177 -20 -247 28 -26 60 -37 111 -39 23 -1 46 -10 61 -24 46 -43 82 -48 349
-47 233 1 255 3 286 21 19 11 43 32 53 46 22 29 34 95 24 133 -9 38 -62 93
-100 106 -29 9 -34 16 -39 51 -10 77 -94 148 -174 149 -20 0 -49 12 -76 31
-59 42 -135 49 -195 18z m162 -44 c23 -16 25 -20 12 -27 -11 -6 -24 -3 -42 11
-26 20 -54 19 -54 -3 0 -7 11 -18 24 -26 35 -18 16 -47 -28 -42 -45 4 -97 -28
-120 -74 -10 -22 -32 -48 -49 -59 -49 -32 -70 -69 -75 -130 -5 -61 -11 -64
-66 -41 -110 46 -97 201 19 220 11 2 35 -6 54 -17 27 -16 35 -18 42 -6 11 17
-32 59 -61 59 -13 0 -17 5 -13 19 9 35 40 54 92 55 42 1 53 5 72 30 44 56 132
71 193 31z m164 -59 c49 -26 74 -61 80 -118 6 -42 11 -53 27 -56 42 -8 86 -36
100 -63 33 -63 8 -138 -54 -162 -46 -18 -514 -18 -546 0 -36 20 -57 51 -62 91
-7 52 19 97 69 119 28 12 38 23 38 39 0 13 11 35 24 51 20 23 32 28 74 28 43
0 53 4 73 29 41 52 121 71 177 42z"/>
<path d="M661 716 c-9 -10 -4 -19 23 -40 20 -15 37 -38 41 -56 5 -22 12 -30
23 -28 10 2 16 11 16 21 -1 9 -2 24 -3 33 -1 17 -66 84 -80 84 -5 0 -14 -6
-20 -14z"/>
<path d="M730 546 c0 -8 4 -17 9 -20 11 -7 33 18 24 27 -12 12 -33 7 -33 -7z"/>
<path d="M776 801 c-7 -11 18 -33 27 -24 4 3 7 12 7 20 0 15 -26 18 -34 4z"/>
<path d="M77 733 c-4 -3 -7 -12 -7 -20 0 -15 26 -18 34 -4 7 11 -18 33 -27 24z"/>
<path d="M120 262 c-14 -5 -13 -29 3 -34 10 -4 718 -3 740 1 4 0 7 8 7 16 0 8
-3 16 -7 16 -19 3 -734 4 -743 1z"/>
<path d="M213 195 c-13 -10 -14 -13 -2 -20 22 -14 358 -13 378 1 9 7 12 16 8
20 -14 14 -365 13 -384 -1z"/>
<path d="M623 192 c-9 -21 10 -28 74 -26 75 2 73 2 73 19 0 17 4 16 -78 19
-48 2 -65 -1 -69 -12z"/>
<path d="M309 139 c-36 -22 13 -30 179 -30 176 -1 201 3 183 25 -13 15 -339
20 -362 5z"/>
<path d="M385 80 c-14 -23 11 -30 104 -30 102 0 113 3 104 26 -4 11 -28 14
-103 14 -55 0 -102 -4 -105 -10z"/>
</g>
</svg>
