<?xml version="1.0" standalone="no"?>
<!DOCTYPE svg PUBLIC "-//W3C//DTD SVG 20010904//EN"
 "http://www.w3.org/TR/2001/REC-SVG-20010904/DTD/svg10.dtd">
<svg version="1.0" xmlns="http://www.w3.org/2000/svg"
 width="100.000000pt" height="100.000000pt" viewBox="0 0 100.000000 100.000000"
 preserveAspectRatio="xMidYMid meet">
<metadata>
Created by potrace 1.14, written by Peter Selinger 2001-2017
</metadata>
<g transform="translate(0.000000,100.000000) scale(0.100000,-0.100000)"
fill="#000000" stroke="none">
<path d="M52 888 c-17 -17 -17 -619 0 -636 8 -8 60 -12 170 -12 l158 0 0 -30
c0 -28 -2 -30 -40 -30 -49 0 -80 -27 -80 -70 l0 -30 164 0 c159 0 164 1 159
20 -5 19 -14 20 -145 20 -90 0 -137 4 -133 10 4 6 60 10 137 10 115 0 129 2
124 16 -3 9 -6 18 -6 20 0 2 -31 4 -70 4 l-70 0 0 30 0 29 72 3 c60 2 73 6 76
21 3 16 -14 17 -242 17 l-246 0 0 40 0 40 273 0 c261 0 275 1 292 20 18 20 17
20 -273 20 l-292 0 0 230 0 230 420 0 420 0 0 -228 c0 -216 1 -228 20 -240 20
-12 20 -10 20 236 0 180 -3 251 -12 260 -17 17 -879 17 -896 0z"/>
<path d="M739 391 c-74 -24 -128 -94 -136 -176 -5 -58 11 -105 54 -150 42 -46
79 -60 148 -59 87 1 150 46 184 132 30 73 -12 187 -85 233 -37 23 -124 33
-165 20z m140 -51 c11 -5 33 -27 48 -47 39 -51 40 -134 1 -185 -55 -73 -153
-87 -224 -33 -41 31 -53 52 -60 105 -10 71 30 142 96 169 29 12 110 7 139 -9z"/>
<path d="M831 280 c-17 -17 -31 -34 -31 -40 0 -11 61 -70 73 -70 20 0 17 32
-4 51 l-24 20 23 18 c15 11 21 23 16 34 -9 23 -16 22 -53 -13z"/>
<path d="M717 223 c-11 -10 -8 -18 13 -40 19 -21 19 -21 -1 -47 -20 -25 -19
-46 2 -46 11 0 69 60 69 72 0 9 -60 68 -70 68 -4 0 -10 -3 -13 -7z"/>
</g>
</svg>
